P1
# Low resultion I-logo.
30 30
111111111100000000011111111111
111111110000000000000011111111
111111000000000000000000111111
111110000000000000000000011111
111100000000000000000000001111
111000000000000000000000000111
110000000000000000000000000011
110000000000000000000000000011
100000010101000000000000000001
100000001101000000000000000001
000000010110100000000000000000
000000010101100000000000000000
000000001101010000000000000000
000000000110110000000000000000
000000001011011000000000000000
000000000101010100000000000000
000000001010101000000000000000
000000000011011110000000000000
000000000101101010000000000000
100000000010101011100000000001
100000000101101000000000000001
100000000000100100000000000001
110000000010000000000000000011
110000000000000000000000000011
111000000000000000000000000111
111100000000000000000000001111
111110000000000000000000011111
111111000000000000000001111111
111111110000000000000011111111
111111111110000000011111111111
