P1
# Kommentar ...
30 30
000000000000000000000000000000
000000000000000000000000000000
000000000000111111100000000000
000000000011111111111000000000
000000001111000000011110000000
000000011100000000000111000000
000000110000000000000001100000
000001100000111110000000110000
000001100011111100000000110000
000011000111000000000000011000
000011001110000000000000011000
000110001000000000000000001100
000110000000000000000000001100
000110000000000000000000001100
000110000000000000000000001100
000110001000000000000000001100
000110001000000000000000001100
000110001100000000000000001100
000011001110000000000000011000
000011000111000000000000011000
000001100011100000000000110000
000001100001111000000000110000
000000110000011110000001100000
000000011100000000000111000000
000000001111000000011110000000
000000000011111111111000000000
000000000000111111100000000000
000000000000000000000000000000
000000000000000000000000000000
000000000000000000000000000000
